<svg width="760" height="200" viewBox="0 0 760 200" fill="none" xmlns="http://www.w3.org/2000/svg">
<path d="M121.848 129.274V137.626H73.08V70.426H120.504V78.778H82.68V99.418H116.376V107.578H82.68V129.274H121.848ZM163.217 86.266C169.681 86.266 174.801 88.154 178.577 91.93C182.417 95.642 184.337 101.114 184.337 108.346V137.626H175.121V109.402C175.121 104.474 173.937 100.762 171.569 98.266C169.201 95.77 165.809 94.522 161.393 94.522C156.401 94.522 152.465 95.994 149.585 98.938C146.705 101.818 145.265 105.978 145.265 111.418V137.626H136.049V86.746H144.881V94.426C146.737 91.802 149.233 89.786 152.369 88.378C155.569 86.97 159.185 86.266 163.217 86.266ZM215.984 138.202C211.824 138.202 207.824 137.658 203.984 136.57C200.144 135.418 197.136 133.978 194.96 132.25L198.8 124.954C201.04 126.554 203.76 127.834 206.96 128.794C210.16 129.754 213.392 130.234 216.656 130.234C224.72 130.234 228.752 127.93 228.752 123.322C228.752 121.786 228.208 120.57 227.12 119.674C226.032 118.778 224.656 118.138 222.992 117.754C221.392 117.306 219.088 116.826 216.08 116.314C211.984 115.674 208.624 114.938 206 114.106C203.44 113.274 201.232 111.866 199.376 109.882C197.52 107.898 196.592 105.114 196.592 101.53C196.592 96.922 198.512 93.242 202.352 90.49C206.192 87.674 211.344 86.266 217.808 86.266C221.2 86.266 224.592 86.682 227.984 87.514C231.376 88.346 234.16 89.466 236.336 90.874L232.4 98.17C228.24 95.482 223.344 94.138 217.712 94.138C213.808 94.138 210.832 94.778 208.784 96.058C206.736 97.338 205.712 99.034 205.712 101.146C205.712 102.81 206.288 104.122 207.44 105.082C208.592 106.042 210 106.746 211.664 107.194C213.392 107.642 215.792 108.154 218.864 108.73C222.96 109.434 226.256 110.202 228.752 111.034C231.312 111.802 233.488 113.146 235.28 115.066C237.072 116.986 237.968 119.674 237.968 123.13C237.968 127.738 235.984 131.418 232.016 134.17C228.112 136.858 222.768 138.202 215.984 138.202ZM295.47 112.474C295.47 113.178 295.406 114.106 295.278 115.258H253.998C254.574 119.738 256.526 123.354 259.854 126.106C263.246 128.794 267.438 130.138 272.43 130.138C278.51 130.138 283.406 128.09 287.118 123.994L292.206 129.946C289.902 132.634 287.022 134.682 283.566 136.09C280.174 137.498 276.366 138.202 272.142 138.202C266.766 138.202 261.998 137.114 257.838 134.938C253.678 132.698 250.446 129.594 248.142 125.626C245.902 121.658 244.782 117.178 244.782 112.186C244.782 107.258 245.87 102.81 248.046 98.842C250.286 94.874 253.326 91.802 257.166 89.626C261.07 87.386 265.454 86.266 270.318 86.266C275.182 86.266 279.502 87.386 283.278 89.626C287.118 91.802 290.094 94.874 292.206 98.842C294.382 102.81 295.47 107.354 295.47 112.474ZM270.318 94.042C265.902 94.042 262.19 95.386 259.182 98.074C256.238 100.762 254.51 104.282 253.998 108.634H286.638C286.126 104.346 284.366 100.858 281.358 98.17C278.414 95.418 274.734 94.042 270.318 94.042ZM371.915 86.266C378.315 86.266 383.371 88.122 387.083 91.834C390.859 95.546 392.747 101.05 392.747 108.346V137.626H383.531V109.402C383.531 104.474 382.379 100.762 380.075 98.266C377.835 95.77 374.603 94.522 370.379 94.522C365.707 94.522 361.995 95.994 359.243 98.938C356.491 101.818 355.115 105.978 355.115 111.418V137.626H345.899V109.402C345.899 104.474 344.747 100.762 342.443 98.266C340.203 95.77 336.971 94.522 332.747 94.522C328.075 94.522 324.363 95.994 321.611 98.938C318.859 101.818 317.483 105.978 317.483 111.418V137.626H308.267V86.746H317.099V94.33C318.955 91.706 321.387 89.722 324.395 88.378C327.403 86.97 330.827 86.266 334.667 86.266C338.635 86.266 342.155 87.066 345.227 88.666C348.299 90.266 350.667 92.602 352.331 95.674C354.251 92.73 356.907 90.426 360.299 88.762C363.755 87.098 367.627 86.266 371.915 86.266ZM436.681 86.266C441.609 86.266 446.025 87.354 449.929 89.53C453.833 91.706 456.873 94.746 459.049 98.65C461.289 102.554 462.409 107.066 462.409 112.186C462.409 117.306 461.289 121.85 459.049 125.818C456.873 129.722 453.833 132.762 449.929 134.938C446.025 137.114 441.609 138.202 436.681 138.202C432.905 138.202 429.449 137.466 426.313 135.994C423.177 134.522 420.585 132.378 418.537 129.562V137.626H409.705V66.394H418.921V94.426C420.969 91.738 423.529 89.722 426.601 88.378C429.673 86.97 433.033 86.266 436.681 86.266ZM435.913 130.138C439.177 130.138 442.089 129.402 444.649 127.93C447.273 126.394 449.321 124.282 450.793 121.594C452.329 118.842 453.097 115.706 453.097 112.186C453.097 108.666 452.329 105.562 450.793 102.874C449.321 100.122 447.273 98.01 444.649 96.538C442.089 95.066 439.177 94.33 435.913 94.33C432.713 94.33 429.801 95.066 427.177 96.538C424.553 98.01 422.505 100.122 421.033 102.874C419.561 105.562 418.825 108.666 418.825 112.186C418.825 115.706 419.561 118.842 421.033 121.594C422.505 124.282 424.553 126.394 427.177 127.93C429.801 129.402 432.713 130.138 435.913 130.138ZM475.142 66.394H484.358V137.626H475.142V66.394ZM547.939 112.474C547.939 113.178 547.875 114.106 547.747 115.258H506.467C507.043 119.738 508.995 123.354 512.323 126.106C515.715 128.794 519.907 130.138 524.899 130.138C530.979 130.138 535.875 128.09 539.587 123.994L544.675 129.946C542.371 132.634 539.491 134.682 536.035 136.09C532.643 137.498 528.835 138.202 524.611 138.202C519.235 138.202 514.467 137.114 510.307 134.938C506.147 132.698 502.915 129.594 500.611 125.626C498.371 121.658 497.251 117.178 497.251 112.186C497.251 107.258 498.339 102.81 500.515 98.842C502.755 94.874 505.795 91.802 509.635 89.626C513.539 87.386 517.923 86.266 522.787 86.266C527.651 86.266 531.971 87.386 535.747 89.626C539.587 91.802 542.563 94.874 544.675 98.842C546.851 102.81 547.939 107.354 547.939 112.474ZM522.787 94.042C518.371 94.042 514.659 95.386 511.651 98.074C508.707 100.762 506.979 104.282 506.467 108.634H539.107C538.595 104.346 536.835 100.858 533.827 98.17C530.883 95.418 527.203 94.042 522.787 94.042Z" fill="black"/>
<mask id="mask0_635_256" style="mask-type:alpha" maskUnits="userSpaceOnUse" x="584" y="38" width="113" height="124">
<path d="M619.314 55.1361L639.829 66.7936C640.288 67.0583 640.808 67.1978 641.338 67.1978C641.867 67.1978 642.387 67.0583 642.846 66.7936L662.45 55.3895C662.906 55.1239 663.284 54.7435 663.547 54.2861C663.81 53.8287 663.948 53.3104 663.948 52.7829C663.948 52.2554 663.81 51.7371 663.547 51.2797C663.284 50.8223 662.906 50.4419 662.45 50.1763L642.225 38.4042C641.766 38.1394 641.246 38 640.716 38C640.187 38 639.666 38.1394 639.208 38.4042L619.296 49.9168C618.84 50.1836 618.461 50.5656 618.199 51.0245C617.937 51.4834 617.8 52.0031 617.802 52.5317C617.804 53.0602 617.944 53.579 618.21 54.0361C618.475 54.4932 618.856 54.8725 619.314 55.1361V55.1361Z" fill="white"/>
<path d="M653.1 92.2762L631.698 80.0576C631.245 79.7986 630.732 79.6615 630.21 79.6598C629.689 79.658 629.175 79.7916 628.721 80.0476C628.266 80.3035 627.885 80.673 627.616 81.12C627.347 81.567 627.198 82.0762 627.184 82.5979L627.234 119.857C627.221 120.367 627.078 120.866 626.82 121.306C626.562 121.746 626.196 122.113 625.757 122.374C625.319 122.634 624.821 122.779 624.311 122.795C623.801 122.81 623.295 122.696 622.841 122.464L614.997 118.427C614.495 118.17 614.076 117.778 613.786 117.295C613.496 116.812 613.347 116.257 613.356 115.694L613.041 71.043C613.05 70.5037 612.914 69.9718 612.648 69.5027C612.382 69.0336 611.994 68.6446 611.527 68.376L600.062 61.8172C599.611 61.5635 599.102 61.4302 598.584 61.4302C598.066 61.4302 597.557 61.5635 597.106 61.8172L585.557 68.201C585.085 68.4621 584.691 68.845 584.417 69.3099C584.144 69.7747 583.999 70.3044 584 70.8439L584 127.073C584 127.589 584.132 128.096 584.383 128.546C584.635 128.996 584.997 129.374 585.436 129.644L638.288 161.497C638.739 161.774 639.255 161.929 639.785 161.943C640.314 161.958 640.839 161.833 641.305 161.581L653.191 155.167C653.664 154.913 654.06 154.537 654.339 154.079C654.618 153.621 654.769 153.097 654.778 152.561L654.626 94.9431C654.634 94.4026 654.497 93.8699 654.228 93.4007C653.96 92.9316 653.57 92.5432 653.1 92.2762Z" fill="white"/>
<path d="M695.041 69.0738L683.347 62.2857C682.968 62.0676 682.539 61.9528 682.101 61.9528C681.664 61.9528 681.235 62.0676 680.855 62.2857L660.552 73.8767C660.169 74.0944 659.851 74.4094 659.629 74.7899C659.408 75.1704 659.292 75.6027 659.292 76.0429C659.292 76.4831 659.408 76.9154 659.629 77.2959C659.851 77.6764 660.169 77.9915 660.552 78.2091L668.697 82.8431L668.739 142.536C668.737 142.969 668.847 143.394 669.059 143.772C669.271 144.149 669.577 144.464 669.948 144.687C670.319 144.91 670.741 145.032 671.173 145.042C671.606 145.052 672.033 144.95 672.414 144.745L694.969 132.574C695.364 132.361 695.695 132.045 695.925 131.659C696.155 131.274 696.277 130.833 696.278 130.384V71.252C696.282 70.8122 696.17 70.3791 695.952 69.9967C695.735 69.6142 695.421 69.2958 695.041 69.0738V69.0738Z" fill="white"/>
</mask>
<g mask="url(#mask0_635_256)">
<rect x="583" y="38" width="113" height="124" fill="url(#paint0_linear_635_256)"/>
</g>
<defs>
<linearGradient id="paint0_linear_635_256" x1="696" y1="54" x2="583" y2="130.5" gradientUnits="userSpaceOnUse">
<stop stop-color="#03ECED"/>
<stop offset="1" stop-color="#1EC1FE"/>
</linearGradient>
</defs>
</svg>
